# xmcd
#
# Track frame offsets:
#	150
#	18569
#	40582
#	64688
#	89550
#	114979
#	140723
#	166535
#	192983
#	219517
#	248292
#
# Disc length: 3737 seconds
#
# Revision: 0
# Processed by: cddbd v1.5.2PL0 Copyright (c) Steve Scherf et al.
# Submitted via: EasyCDDAExtractor 16.0.9.1
#
DISCID=8b0e970b
DTITLE=Gordon Webster - Blues Till Dawn
DYEAR=2007
DGENRE=Blues
TTITLE0=Don't Go to Strangers
TTITLE1=The Very Thought of You
TTITLE2=Mo' Better Blues
TTITLE3=Gee Baby Ain't I Good to You
TTITLE4=Georgia on My Mind
TTITLE5=When Did You Leave Heaven?
TTITLE6=Things Ain't What They Used to Be
TTITLE7=What the World Needs Now
TTITLE8=Makin' Whoopie
TTITLE9=Just Squeeze Me
TTITLE10=Girl from Ipanema
EXTD=
EXTT0=
EXTT1=
EXTT2=
EXTT3=
EXTT4=
EXTT5=
EXTT6=
EXTT7=
EXTT8=
EXTT9=
EXTT10=
PLAYORDER=
